<mxfile host="app.diagrams.net" modified="2023-04-16T17:03:19.322Z" agent="Mozilla/5.0 (X11; Linux x86_64) AppleWebKit/537.36 (KHTML, like Gecko) Chrome/112.0.0.0 Safari/537.36" etag="_fZ-e_QbyRqaCLD4NVG4" version="21.1.8" type="github">
  <diagram name="Page-1" id="eqyKnO2Cwf8LMekeqgzb">
    <mxGraphModel dx="989" dy="574" grid="1" gridSize="10" guides="1" tooltips="1" connect="1" arrows="1" fold="1" page="1" pageScale="1" pageWidth="800" pageHeight="800" math="0" shadow="0">
      <root>
        <mxCell id="0" />
        <mxCell id="1" parent="0" />
        <mxCell id="RFkQ3Km538WCamqR7Py1-1" value="" style="rounded=1;whiteSpace=wrap;html=1;" vertex="1" parent="1">
          <mxGeometry x="480" y="160" width="200" height="480" as="geometry" />
        </mxCell>
        <mxCell id="RFkQ3Km538WCamqR7Py1-2" value="&lt;b&gt;Host&lt;/b&gt;" style="text;html=1;strokeColor=none;fillColor=none;align=center;verticalAlign=middle;whiteSpace=wrap;rounded=0;" vertex="1" parent="1">
          <mxGeometry x="550" y="160" width="60" height="30" as="geometry" />
        </mxCell>
        <mxCell id="RFkQ3Km538WCamqR7Py1-3" value="" style="rounded=1;whiteSpace=wrap;html=1;" vertex="1" parent="1">
          <mxGeometry x="120" y="160" width="200" height="480" as="geometry" />
        </mxCell>
        <mxCell id="RFkQ3Km538WCamqR7Py1-4" value="&lt;b&gt;LoadGen&lt;/b&gt;" style="text;html=1;strokeColor=none;fillColor=none;align=center;verticalAlign=middle;whiteSpace=wrap;rounded=0;" vertex="1" parent="1">
          <mxGeometry x="190" y="160" width="60" height="30" as="geometry" />
        </mxCell>
        <mxCell id="RFkQ3Km538WCamqR7Py1-5" value="" style="rounded=0;whiteSpace=wrap;html=1;dashed=1;" vertex="1" parent="1">
          <mxGeometry x="320" y="200" width="160" height="400" as="geometry" />
        </mxCell>
        <mxCell id="RFkQ3Km538WCamqR7Py1-6" value="&lt;b&gt;100G Line&lt;/b&gt;" style="text;html=1;strokeColor=none;fillColor=none;align=center;verticalAlign=middle;whiteSpace=wrap;rounded=0;" vertex="1" parent="1">
          <mxGeometry x="370" y="200" width="60" height="30" as="geometry" />
        </mxCell>
        <mxCell id="RFkQ3Km538WCamqR7Py1-7" value="" style="rounded=1;whiteSpace=wrap;html=1;" vertex="1" parent="1">
          <mxGeometry x="500" y="190" width="160" height="100" as="geometry" />
        </mxCell>
        <mxCell id="RFkQ3Km538WCamqR7Py1-8" value="Guest" style="text;html=1;strokeColor=none;fillColor=none;align=center;verticalAlign=middle;whiteSpace=wrap;rounded=0;fontStyle=1" vertex="1" parent="1">
          <mxGeometry x="550" y="190" width="60" height="30" as="geometry" />
        </mxCell>
        <mxCell id="RFkQ3Km538WCamqR7Py1-9" value="Reflector" style="rounded=1;whiteSpace=wrap;html=1;fontStyle=0" vertex="1" parent="1">
          <mxGeometry x="520" y="220" width="120" height="50" as="geometry" />
        </mxCell>
        <mxCell id="RFkQ3Km538WCamqR7Py1-10" value="" style="rounded=1;whiteSpace=wrap;html=1;" vertex="1" parent="1">
          <mxGeometry x="500" y="300" width="160" height="100" as="geometry" />
        </mxCell>
        <mxCell id="RFkQ3Km538WCamqR7Py1-11" value="Guest" style="text;html=1;strokeColor=none;fillColor=none;align=center;verticalAlign=middle;whiteSpace=wrap;rounded=0;fontStyle=1" vertex="1" parent="1">
          <mxGeometry x="550" y="300" width="60" height="30" as="geometry" />
        </mxCell>
        <mxCell id="RFkQ3Km538WCamqR7Py1-12" value="Reflector" style="rounded=1;whiteSpace=wrap;html=1;fontStyle=0" vertex="1" parent="1">
          <mxGeometry x="520" y="330" width="120" height="50" as="geometry" />
        </mxCell>
        <mxCell id="RFkQ3Km538WCamqR7Py1-13" value="" style="rounded=1;whiteSpace=wrap;html=1;" vertex="1" parent="1">
          <mxGeometry x="500" y="520" width="160" height="100" as="geometry" />
        </mxCell>
        <mxCell id="RFkQ3Km538WCamqR7Py1-14" value="Guest" style="text;html=1;strokeColor=none;fillColor=none;align=center;verticalAlign=middle;whiteSpace=wrap;rounded=0;fontStyle=1" vertex="1" parent="1">
          <mxGeometry x="550" y="520" width="60" height="30" as="geometry" />
        </mxCell>
        <mxCell id="RFkQ3Km538WCamqR7Py1-15" value="Reflector" style="rounded=1;whiteSpace=wrap;html=1;fontStyle=0" vertex="1" parent="1">
          <mxGeometry x="520" y="550" width="120" height="50" as="geometry" />
        </mxCell>
        <mxCell id="RFkQ3Km538WCamqR7Py1-16" value="" style="rounded=1;whiteSpace=wrap;html=1;" vertex="1" parent="1">
          <mxGeometry x="500" y="410" width="160" height="100" as="geometry" />
        </mxCell>
        <mxCell id="RFkQ3Km538WCamqR7Py1-17" value="Guest" style="text;html=1;strokeColor=none;fillColor=none;align=center;verticalAlign=middle;whiteSpace=wrap;rounded=0;fontStyle=1" vertex="1" parent="1">
          <mxGeometry x="550" y="410" width="60" height="30" as="geometry" />
        </mxCell>
        <mxCell id="RFkQ3Km538WCamqR7Py1-18" value="Reflector" style="rounded=1;whiteSpace=wrap;html=1;fontStyle=0" vertex="1" parent="1">
          <mxGeometry x="520" y="440" width="120" height="50" as="geometry" />
        </mxCell>
        <mxCell id="RFkQ3Km538WCamqR7Py1-19" value="" style="rounded=1;whiteSpace=wrap;html=1;" vertex="1" parent="1">
          <mxGeometry x="140" y="190" width="160" height="430" as="geometry" />
        </mxCell>
        <mxCell id="RFkQ3Km538WCamqR7Py1-20" value="Generator" style="text;html=1;strokeColor=none;fillColor=none;align=center;verticalAlign=middle;whiteSpace=wrap;rounded=0;" vertex="1" parent="1">
          <mxGeometry x="190" y="190" width="60" height="30" as="geometry" />
        </mxCell>
      </root>
    </mxGraphModel>
  </diagram>
</mxfile>
